# xmcd
#
# Track frame offsets:
#	150
#	15726
#	31687
#	46080
#	61718
#	75937
#	89716
#	104427
#	110218
#	124174
#	135048
#	151001
#	158722
#	169560
#
# Disc length: 2462 seconds
#
# Revision: 2
# Processed by: cddbd v1.5.2PL0 Copyright (c) Steve Scherf et al.
# Submitted via: dBpowerAMP V4.0
#
DISCID=98099c0e
DTITLE=Jack Johnson - In Between Dreams
DYEAR=2005
DGENRE=FOLKS
TTITLE0=Better Together
TTITLE1=Never Know
TTITLE2=Banana Pancakes
TTITLE3=Good People
TTITLE4=No Other Way
TTITLE5=Sitting, Waiting, Wishing
TTITLE6=Staple It Together
TTITLE7=Situations
TTITLE8=Crying Shame
TTITLE9=If I Could
TTITLE10=Breakdown
TTITLE11=Belle
TTITLE12=Do You Remember
TTITLE13=Constellations
EXTD=
EXTT0=
EXTT1=
EXTT2=
EXTT3=
EXTT4=
EXTT5=
EXTT6=
EXTT7=
EXTT8=
EXTT9=
EXTT10=
EXTT11=
EXTT12=
EXTT13=
PLAYORDER=
